<svg xmlns="http://www.w3.org/2000/svg" width="32" height="32" fill="none"><path stroke="#fff" stroke-linecap="round" stroke-linejoin="round" stroke-width="2" d="m21.333 13.333 3.436-2.061c1.058-.635 1.586-.952 2.021-.911.38.035.726.231.951.538.259.352.259.969.259 2.202V18.9c0 1.233 0 1.85-.259 2.202a1.33 1.33 0 0 1-.95.538c-.436.04-.965-.276-2.022-.91l-3.436-2.062M8.267 24h8.8c1.493 0 2.24 0 2.81-.29.502-.256.91-.664 1.166-1.166.29-.57.29-1.317.29-2.81v-7.467c0-1.494 0-2.24-.29-2.811a2.67 2.67 0 0 0-1.166-1.165C19.307 8 18.56 8 17.067 8h-8.8c-1.494 0-2.24 0-2.811.29-.502.256-.91.664-1.165 1.166C4 10.026 4 10.773 4 12.266v7.467c0 1.494 0 2.24.29 2.811.256.502.664.91 1.166 1.165.57.291 1.317.291 2.81.291"/></svg>