<svg xmlns="http://www.w3.org/2000/svg" width="33" height="32" fill="none"><path fill="#65708C" d="M29.749 30.222H3.082a.89.89 0 0 1 0-1.777H29.75a.89.89 0 0 1 0 1.777M10.807 23.586c0 1.701-1.38 3.08-3.081 3.08H5.443a3.08 3.08 0 0 1-3.081-3.08v-8.95c0-1.7 1.38-3.08 3.081-3.08h2.283c1.702 0 3.081 1.38 3.081 3.08zm-1.778-8.95c0-.719-.584-1.303-1.303-1.303H5.443c-.72 0-1.303.584-1.303 1.304v8.95c0 .719.584 1.302 1.303 1.302h2.283c.72 0 1.303-.584 1.303-1.303zM21.029 23.586c0 1.701-1.38 3.08-3.081 3.08h-2.283a3.08 3.08 0 0 1-3.081-3.08V9.748c0-1.702 1.38-3.081 3.08-3.081h2.284c1.701 0 3.08 1.38 3.08 3.08zM19.25 9.748c0-.72-.584-1.303-1.303-1.303h-2.283c-.72 0-1.303.583-1.303 1.303v13.838c0 .72.583 1.303 1.303 1.303h2.283c.72 0 1.303-.583 1.303-1.303zM30.807 23.586c0 1.701-1.38 3.08-3.081 3.08h-2.283a3.08 3.08 0 0 1-3.081-3.08V4.859c0-1.702 1.38-3.081 3.081-3.081h2.283c1.702 0 3.081 1.38 3.081 3.08zM29.029 4.859c0-.72-.583-1.303-1.303-1.303h-2.283c-.72 0-1.303.583-1.303 1.303v18.727c0 .72.584 1.303 1.303 1.303h2.283c.72 0 1.303-.583 1.303-1.303z"/></svg>