<svg width="61" height="61" viewBox="0 0 61 61" fill="none" xmlns="http://www.w3.org/2000/svg">
<path d="M7.9375 30.1093H4.42188C4.42235 24.7083 6.10381 19.4413 9.23298 15.039C12.3622 10.6368 16.7839 7.31766 21.8847 5.54203C26.9855 3.76641 32.5125 3.62236 37.6989 5.12988C42.8853 6.63741 47.4739 9.72175 50.8281 13.955V10.0702H54.3438V22.3749H42.0391V18.8593H49.9223C47.9456 15.4407 45.105 12.6017 41.6851 10.6272C38.2653 8.65268 34.3864 7.61192 30.4375 7.60929C18.0309 7.60929 7.9375 17.7026 7.9375 30.1093ZM52.9375 30.1093C52.9375 42.5159 42.8441 52.6093 30.4375 52.6093C26.4886 52.6067 22.6097 51.5659 19.1899 49.5914C15.77 47.6168 12.9294 44.7779 10.9527 41.3593H18.8359V37.8437H6.53125V50.1483H10.0469V46.2636C13.4011 50.4968 17.9897 53.5812 23.1761 55.0887C28.3625 56.5962 33.8895 56.4522 38.9903 54.6765C44.0911 52.9009 48.5128 49.5817 51.642 45.1795C54.7712 40.7773 56.4527 35.5103 56.4531 30.1093H52.9375Z" fill="#A61F67"/>
</svg>
