<svg xmlns="http://www.w3.org/2000/svg" width="32" height="32" fill="none"><path stroke="#fff" stroke-width="2" d="M12.204 7.211c1.69-3.03 2.534-4.544 3.796-4.544s2.107 1.515 3.796 4.544l.437.784c.48.861.72 1.291 1.094 1.575s.84.39 1.772.6l.848.193c3.28.742 4.92 1.113 5.31 2.367s-.728 2.562-2.964 5.177l-.578.676c-.636.743-.953 1.114-1.096 1.574s-.095.955.001 1.947l.087.902c.338 3.488.508 5.232-.514 6.008-1.021.775-2.557.068-5.627-1.346l-.795-.366C16.9 26.902 16.463 26.7 16 26.7s-.899.2-1.771.602l-.795.366c-3.07 1.414-4.606 2.121-5.627 1.346-1.021-.776-.852-2.52-.514-6.008l.087-.902c.096-.992.144-1.487.001-1.947s-.46-.831-1.096-1.574l-.578-.676c-2.236-2.615-3.354-3.922-2.964-5.177s2.03-1.625 5.31-2.367l.848-.192c.932-.211 1.398-.316 1.772-.6.374-.285.614-.715 1.094-1.576z"/></svg>